<?xml version="1.0" encoding="UTF-8"?>
<svg id="Calque_1" data-name="Calque 1" xmlns="http://www.w3.org/2000/svg" viewBox="0 0 1280 1024">
  <defs>
    <style>
      .cls-1 {
        stroke: #97816f;
        stroke-miterlimit: 10;
        stroke-width: 4px;
      }

      .cls-1, .cls-2 {
        fill: #866c58;
      }
    </style>
  </defs>
  <g>
    <path class="cls-2" d="M768.94,530.89l-32.91,17.66c-7.27,3.9-11.54,11.74-10.87,19.97l3.03,37.08c1.71,20.98-20.89,35.22-39.07,24.61l-34.61-20.19c-6.86-4-15.39-3.74-21.99.68l-33.31,22.28c-17.5,11.7-40.93-1.12-40.51-22.17l.75-37.19c.17-8.25-4.57-15.82-12.07-19.27l-33.93-15.6c-19.53-8.98-20.38-36.43-1.43-46.6l32.91-17.66c7.27-3.9,11.54-11.74,10.87-19.97l-3.03-37.08c-1.71-20.98,20.89-35.22,39.07-24.61l34.61,20.19c6.86,4,15.39,3.74,21.99-.68l33.31-22.28c17.5-11.7,40.93,1.12,40.51,22.17l-.75,37.19c-.17,8.25,4.57,15.82,12.07,19.27l33.93,15.6c19.53,8.98,20.38,36.43,1.43,46.6Z"/>
    <path class="cls-2" d="M726.43,623.91c-2.22,3.28-5.15,6.13-8.71,8.37-9.33,5.88-20.58,6.07-30.11.51l-34.61-20.19c-5.82-3.4-13.2-3.17-18.81.58l-33.31,22.28c-9.16,6.13-20.41,6.63-30.08,1.34-9.67-5.29-15.31-15.03-15.09-26.06l.75-37.19c.14-7.06-3.91-13.53-10.33-16.48l-33.93-15.61c-10.08-4.63-16.55-14.4-16.89-25.49-.34-11.09,5.52-21.23,15.29-26.48l32.91-17.66c6.22-3.34,9.87-10.04,9.3-17.08l-3.03-37.08c-.9-10.99,4.14-21.06,13.46-26.93,9.33-5.88,20.58-6.07,30.11-.51l34.61,20.19c5.82,3.4,13.21,3.17,18.81-.58l33.31-22.28c9.16-6.13,20.41-6.63,30.08-1.33,9.67,5.29,15.31,15.03,15.09,26.06l-.75,37.19c-.14,7.06,3.91,13.53,10.33,16.48l33.93,15.6c10.08,4.64,16.55,14.4,16.89,25.49.34,11.09-5.52,21.23-15.29,26.48l-32.91,17.66c-6.22,3.34-9.87,10.04-9.3,17.08l3.03,37.08c.56,6.8-1.16,13.24-4.76,18.56ZM505.16,502.19c-2.63,3.89-4,8.57-3.84,13.6.27,8.93,5.28,16.49,13.4,20.22l33.93,15.61c8.59,3.95,14.01,12.61,13.82,22.05l-.75,37.19c-.18,8.75,4.3,16.47,11.97,20.67,7.67,4.2,16.59,3.8,23.87-1.06l33.31-22.28c7.5-5.01,17.38-5.32,25.17-.77l34.61,20.19c7.55,4.41,16.48,4.26,23.88-.41,7.4-4.66,11.4-12.65,10.68-21.37l-3.03-37.08c-.77-9.42,4.12-18.39,12.44-22.86l32.91-17.66c7.87-4.22,12.41-12.07,12.13-21.01-.27-8.93-5.28-16.49-13.4-20.22l-33.93-15.6c-8.58-3.95-14.01-12.61-13.82-22.05l.75-37.19c.18-8.75-4.3-16.47-11.97-20.67-7.67-4.2-16.59-3.8-23.87,1.06l-33.31,22.28c-7.5,5.01-17.37,5.32-25.17.77l-34.61-20.19c-7.56-4.41-16.48-4.26-23.89.41-7.4,4.66-11.39,12.65-10.68,21.37l3.03,37.08c.77,9.42-4.11,18.39-12.44,22.86l-32.91,17.66c-3.44,1.85-6.25,4.39-8.29,7.41Z"/>
  </g>
  <path class="cls-1" d="M655.85,444.59s50.51-25.62,48.59,19.46-.08,15.52-.08,15.52"/>
  <path class="cls-1" d="M618.13,589.77s-56.63,1.13-35.31-38.64c21.32-39.77,6.82-13.95,6.82-13.95"/>
</svg>